<svg width="488" height="202" viewBox="0 0 488 202" fill="none" xmlns="http://www.w3.org/2000/svg">
<path d="M486.078 22.9444C488.739 31.2082 484.942 41.396 475.146 52.9103C465.391 64.3759 449.897 76.9 429.8 89.7141C389.619 115.334 331.239 141.988 264.185 163.58C197.131 185.171 134.167 197.59 86.5863 200.23C62.7884 201.55 42.8973 200.42 28.2854 196.8C13.6112 193.165 4.58306 187.107 1.92211 178.843C-0.73884 170.58 3.05806 160.392 12.8542 148.878C22.6087 137.412 38.1031 124.888 58.2 112.074C98.3807 86.454 156.761 59.7995 223.815 38.208C290.869 16.6166 353.833 4.19774 401.414 1.55833C425.212 0.238183 445.103 1.36815 459.715 4.98762C474.389 8.62249 483.417 14.6806 486.078 22.9444Z" stroke="#281D4B" stroke-width="2"/>
</svg>
